<mxfile host="app.diagrams.net" agent="Mozilla/5.0 (Windows NT 10.0; Win64; x64) AppleWebKit/537.36 (KHTML, like Gecko) Chrome/135.0.0.0 Safari/537.36" version="26.1.0">
  <diagram name="Page-1" id="RP7NdtQAlVJzLvOLPgYq">
    <mxGraphModel dx="1134" dy="762" grid="1" gridSize="10" guides="1" tooltips="1" connect="1" arrows="1" fold="1" page="1" pageScale="1" pageWidth="850" pageHeight="1100" math="0" shadow="0">
      <root>
        <mxCell id="0" />
        <mxCell id="1" parent="0" />
        <mxCell id="9Vz1PJ25cp8Tzlcrsaui-2" value="" style="group;movable=1;resizable=1;rotatable=1;deletable=1;editable=1;locked=0;connectable=1;" parent="1" vertex="1" connectable="0">
          <mxGeometry x="60" y="95.22" width="190" height="70" as="geometry" />
        </mxCell>
        <mxCell id="9Vz1PJ25cp8Tzlcrsaui-3" value="&lt;div&gt;Crypto_ID &amp;lt;&amp;lt;PK&amp;gt;&amp;gt;&lt;/div&gt;&lt;div&gt;Crypto_name&lt;/div&gt;" style="whiteSpace=wrap;html=1;verticalAlign=top;align=left;movable=1;resizable=1;rotatable=1;deletable=1;editable=1;locked=0;connectable=1;" parent="9Vz1PJ25cp8Tzlcrsaui-2" vertex="1">
          <mxGeometry y="30" width="190" height="40" as="geometry" />
        </mxCell>
        <mxCell id="9Vz1PJ25cp8Tzlcrsaui-4" value="&lt;b&gt;Crypto&lt;/b&gt;" style="rounded=0;whiteSpace=wrap;html=1;movable=1;resizable=1;rotatable=1;deletable=1;editable=1;locked=0;connectable=1;" parent="9Vz1PJ25cp8Tzlcrsaui-2" vertex="1">
          <mxGeometry width="190" height="30" as="geometry" />
        </mxCell>
        <mxCell id="9Vz1PJ25cp8Tzlcrsaui-5" style="edgeStyle=orthogonalEdgeStyle;rounded=0;orthogonalLoop=1;jettySize=auto;html=1;exitX=0.5;exitY=1;exitDx=0;exitDy=0;" parent="9Vz1PJ25cp8Tzlcrsaui-2" source="9Vz1PJ25cp8Tzlcrsaui-3" target="9Vz1PJ25cp8Tzlcrsaui-3" edge="1">
          <mxGeometry relative="1" as="geometry" />
        </mxCell>
        <mxCell id="9Vz1PJ25cp8Tzlcrsaui-6" value="" style="group;movable=1;resizable=1;rotatable=1;deletable=1;editable=1;locked=0;connectable=1;" parent="1" vertex="1" connectable="0">
          <mxGeometry x="600" y="89.43" width="190" height="70" as="geometry" />
        </mxCell>
        <mxCell id="9Vz1PJ25cp8Tzlcrsaui-7" value="&lt;div&gt;Currency_ID &amp;lt;&amp;lt;PK&amp;gt;&amp;gt;&lt;/div&gt;&lt;div&gt;Currency_name&lt;/div&gt;" style="whiteSpace=wrap;html=1;verticalAlign=top;align=left;movable=1;resizable=1;rotatable=1;deletable=1;editable=1;locked=0;connectable=1;" parent="9Vz1PJ25cp8Tzlcrsaui-6" vertex="1">
          <mxGeometry y="30" width="190" height="40" as="geometry" />
        </mxCell>
        <mxCell id="9Vz1PJ25cp8Tzlcrsaui-8" value="&lt;b&gt;Currency&lt;/b&gt;" style="rounded=0;whiteSpace=wrap;html=1;movable=1;resizable=1;rotatable=1;deletable=1;editable=1;locked=0;connectable=1;" parent="9Vz1PJ25cp8Tzlcrsaui-6" vertex="1">
          <mxGeometry width="190" height="30" as="geometry" />
        </mxCell>
        <mxCell id="9Vz1PJ25cp8Tzlcrsaui-9" style="edgeStyle=orthogonalEdgeStyle;rounded=0;orthogonalLoop=1;jettySize=auto;html=1;exitX=0.5;exitY=1;exitDx=0;exitDy=0;" parent="9Vz1PJ25cp8Tzlcrsaui-6" source="9Vz1PJ25cp8Tzlcrsaui-7" target="9Vz1PJ25cp8Tzlcrsaui-7" edge="1">
          <mxGeometry relative="1" as="geometry" />
        </mxCell>
        <mxCell id="9Vz1PJ25cp8Tzlcrsaui-26" style="edgeStyle=orthogonalEdgeStyle;rounded=0;orthogonalLoop=1;jettySize=auto;html=1;entryX=0;entryY=0.25;entryDx=0;entryDy=0;" parent="1" source="9Vz1PJ25cp8Tzlcrsaui-16" target="9Vz1PJ25cp8Tzlcrsaui-7" edge="1">
          <mxGeometry relative="1" as="geometry" />
        </mxCell>
        <mxCell id="9Vz1PJ25cp8Tzlcrsaui-14" value="" style="group;movable=1;resizable=1;rotatable=1;deletable=1;editable=1;locked=0;connectable=1;fontSize=15;" parent="1" vertex="1" connectable="0">
          <mxGeometry x="320" y="110" width="200" height="310" as="geometry" />
        </mxCell>
        <mxCell id="9Vz1PJ25cp8Tzlcrsaui-15" value="&lt;div&gt;Crypto_ID &amp;lt;&amp;lt;FK&amp;gt;&amp;gt;&lt;/div&gt;&lt;div&gt;Currency_ID &amp;lt;&amp;lt;FK&amp;gt;&amp;gt;&lt;/div&gt;&lt;div&gt;&lt;span style=&quot;background-color: transparent; color: light-dark(rgb(0, 0, 0), rgb(255, 255, 255));&quot;&gt;Interval_ID &amp;lt;&amp;lt;FK&amp;gt;&amp;gt;&lt;/span&gt;&lt;/div&gt;&lt;div&gt;Open_price&lt;/div&gt;&lt;div&gt;Close_price&lt;/div&gt;&lt;div&gt;High_price&lt;/div&gt;&lt;div&gt;Low_price&lt;/div&gt;&lt;div&gt;Volume&lt;/div&gt;&lt;div&gt;Close_time&lt;/div&gt;&lt;div&gt;Number of trades&lt;/div&gt;&lt;div&gt;Quote Asset Volume&lt;/div&gt;&lt;div&gt;Taker buyer based asset volume&lt;/div&gt;&lt;div&gt;Taker buyer quote asset volume&lt;/div&gt;&lt;div&gt;&lt;div&gt;Time_stamp&lt;/div&gt;&lt;/div&gt;&lt;div&gt;&lt;br&gt;&lt;/div&gt;" style="whiteSpace=wrap;html=1;verticalAlign=top;align=left;movable=1;resizable=1;rotatable=1;deletable=1;editable=1;locked=0;connectable=1;fontSize=13;" parent="9Vz1PJ25cp8Tzlcrsaui-14" vertex="1">
          <mxGeometry y="40.43" width="200" height="269.57" as="geometry" />
        </mxCell>
        <mxCell id="9Vz1PJ25cp8Tzlcrsaui-28" value="" style="edgeStyle=orthogonalEdgeStyle;rounded=0;orthogonalLoop=1;jettySize=auto;html=1;" parent="9Vz1PJ25cp8Tzlcrsaui-14" source="9Vz1PJ25cp8Tzlcrsaui-16" target="9Vz1PJ25cp8Tzlcrsaui-15" edge="1">
          <mxGeometry relative="1" as="geometry" />
        </mxCell>
        <mxCell id="9Vz1PJ25cp8Tzlcrsaui-16" value="&lt;b&gt;Crypto_data&lt;/b&gt;" style="rounded=0;whiteSpace=wrap;html=1;movable=1;resizable=1;rotatable=1;deletable=1;editable=1;locked=0;connectable=1;" parent="9Vz1PJ25cp8Tzlcrsaui-14" vertex="1">
          <mxGeometry width="200" height="40.43478260869565" as="geometry" />
        </mxCell>
        <mxCell id="9Vz1PJ25cp8Tzlcrsaui-17" style="edgeStyle=orthogonalEdgeStyle;rounded=0;orthogonalLoop=1;jettySize=auto;html=1;exitX=0.5;exitY=1;exitDx=0;exitDy=0;" parent="9Vz1PJ25cp8Tzlcrsaui-14" source="9Vz1PJ25cp8Tzlcrsaui-15" target="9Vz1PJ25cp8Tzlcrsaui-15" edge="1">
          <mxGeometry relative="1" as="geometry" />
        </mxCell>
        <mxCell id="9Vz1PJ25cp8Tzlcrsaui-19" value="" style="group;movable=1;resizable=1;rotatable=1;deletable=1;editable=1;locked=0;connectable=1;" parent="1" vertex="1" connectable="0">
          <mxGeometry x="600" y="242" width="190" height="70" as="geometry" />
        </mxCell>
        <mxCell id="9Vz1PJ25cp8Tzlcrsaui-20" value="&lt;div&gt;Interval_ID &amp;lt;&amp;lt;PK&amp;gt;&amp;gt;&lt;/div&gt;&lt;div&gt;Interval_name&lt;/div&gt;" style="whiteSpace=wrap;html=1;verticalAlign=top;align=left;movable=1;resizable=1;rotatable=1;deletable=1;editable=1;locked=0;connectable=1;" parent="9Vz1PJ25cp8Tzlcrsaui-19" vertex="1">
          <mxGeometry y="30" width="190" height="40" as="geometry" />
        </mxCell>
        <mxCell id="9Vz1PJ25cp8Tzlcrsaui-21" value="&lt;b&gt;Interval&lt;/b&gt;" style="rounded=0;whiteSpace=wrap;html=1;movable=1;resizable=1;rotatable=1;deletable=1;editable=1;locked=0;connectable=1;" parent="9Vz1PJ25cp8Tzlcrsaui-19" vertex="1">
          <mxGeometry width="190" height="30" as="geometry" />
        </mxCell>
        <mxCell id="9Vz1PJ25cp8Tzlcrsaui-22" style="edgeStyle=orthogonalEdgeStyle;rounded=0;orthogonalLoop=1;jettySize=auto;html=1;exitX=0.5;exitY=1;exitDx=0;exitDy=0;" parent="9Vz1PJ25cp8Tzlcrsaui-19" source="9Vz1PJ25cp8Tzlcrsaui-20" target="9Vz1PJ25cp8Tzlcrsaui-20" edge="1">
          <mxGeometry relative="1" as="geometry" />
        </mxCell>
        <mxCell id="9Vz1PJ25cp8Tzlcrsaui-24" style="edgeStyle=orthogonalEdgeStyle;rounded=0;orthogonalLoop=1;jettySize=auto;html=1;entryX=1;entryY=0.5;entryDx=0;entryDy=0;" parent="1" source="9Vz1PJ25cp8Tzlcrsaui-16" target="9Vz1PJ25cp8Tzlcrsaui-2" edge="1">
          <mxGeometry relative="1" as="geometry" />
        </mxCell>
        <mxCell id="9Vz1PJ25cp8Tzlcrsaui-27" style="edgeStyle=orthogonalEdgeStyle;rounded=0;orthogonalLoop=1;jettySize=auto;html=1;entryX=0;entryY=0.75;entryDx=0;entryDy=0;exitX=1;exitY=0.5;exitDx=0;exitDy=0;" parent="1" source="9Vz1PJ25cp8Tzlcrsaui-14" target="9Vz1PJ25cp8Tzlcrsaui-21" edge="1">
          <mxGeometry relative="1" as="geometry" />
        </mxCell>
        <mxCell id="AAKEPCcfk7k66lpwhfkh-3" value="DataScientest DB Schema" style="text;html=1;align=center;verticalAlign=middle;whiteSpace=wrap;rounded=0;fontSize=31;fontStyle=5" vertex="1" parent="1">
          <mxGeometry x="60" y="20" width="650" height="30" as="geometry" />
        </mxCell>
        <mxCell id="AAKEPCcfk7k66lpwhfkh-4" value="" style="group;movable=1;resizable=1;rotatable=1;deletable=1;editable=1;locked=0;connectable=1;" vertex="1" connectable="0" parent="1">
          <mxGeometry x="60" y="440" width="190" height="70" as="geometry" />
        </mxCell>
        <mxCell id="AAKEPCcfk7k66lpwhfkh-5" value="&lt;div&gt;ID &amp;lt;&amp;lt;PK&amp;gt;&amp;gt;&lt;/div&gt;&lt;div&gt;Time_stamp&lt;/div&gt;" style="whiteSpace=wrap;html=1;verticalAlign=top;align=left;movable=1;resizable=1;rotatable=1;deletable=1;editable=1;locked=0;connectable=1;" vertex="1" parent="AAKEPCcfk7k66lpwhfkh-4">
          <mxGeometry y="30" width="190" height="40" as="geometry" />
        </mxCell>
        <mxCell id="AAKEPCcfk7k66lpwhfkh-6" value="&lt;b&gt;HistoricalData_Updated&lt;/b&gt;" style="rounded=0;whiteSpace=wrap;html=1;movable=1;resizable=1;rotatable=1;deletable=1;editable=1;locked=0;connectable=1;" vertex="1" parent="AAKEPCcfk7k66lpwhfkh-4">
          <mxGeometry width="190" height="30" as="geometry" />
        </mxCell>
        <mxCell id="AAKEPCcfk7k66lpwhfkh-7" style="edgeStyle=orthogonalEdgeStyle;rounded=0;orthogonalLoop=1;jettySize=auto;html=1;exitX=0.5;exitY=1;exitDx=0;exitDy=0;" edge="1" parent="AAKEPCcfk7k66lpwhfkh-4" source="AAKEPCcfk7k66lpwhfkh-5" target="AAKEPCcfk7k66lpwhfkh-5">
          <mxGeometry relative="1" as="geometry" />
        </mxCell>
        <mxCell id="AAKEPCcfk7k66lpwhfkh-8" value="" style="shape=image;verticalLabelPosition=bottom;labelBackgroundColor=default;verticalAlign=top;aspect=fixed;imageAspect=0;image=data:image/png,iVBORw0KGgoAAAANSUhEUgAAAF4AAABSCAYAAADdEGMVAAAAAXNSR0IArs4c6QAAAARnQU1BAACxjwv8YQUAAAAJcEhZcwAAHYcAAB2HAY/l8WUAAAq2SURBVHhe7Zx7jBvFHYC/3fX67LN97+NyEAgiRFAIVVVARVH+KFCqtkRqFKS2ClRqk1LaBiQglKZplfKoArRVE0or+ogIfRAgKmmkEESgBYpQmpZAhAhFvAIhhDzu5buzfX6sZ/rH2LFv7+zz+na9p8qfFJ09+8js59mZ3/x2bC2dyUqaNBzdXtCkMTTF+0RTvE80xftEU7xPNMX7RFO8TzTF+0RTvE80xftEU7xPNMX7RFO8TzTF+0RTvE9oczUfL4ADmSz/zWZ5N2dxxLI4mReMCEFKCHQgput0GTr9hsHZZoBFpslFwSALzYD9dHOOOSU+JSV7UhM8P5FmbzpDTtZXtXmGwdJwC1eGwywJtdg3zwnmhPh3czkeS6T4WzKFVafsSiwIBLgm2srKaART0+ybfcNX8cfzeX43Os6OZMq+yXU6dZ3VbVG+HovaN/mCb+K3jSfZNDpG1uUWPhMXBk3WdrRzcUvQvqmhNFz8qBDcORznHxNp+6aGclN7G99q86/1N1T8wWyO9UMjHLYs+yZfuLo1zMbuTntxQ2iY+L3pDLcODjPR4K5lJi4LtbC5p4twgwfehkyg9qYzrBkYcixdT4GeLL3X0hAYKN9j9uwr1C3jsG6zxXPxr2ez3DI4jLBvmIHQAUn7doGIqPfhf0v6NgjyHvQMr2Sy3Do4Yi/2FE/FD+cFPxyKk3bYmiLPSbp+L4hfq6rX9lfJaXcLRlZryGkmpUYc+tYJ+tYJjFHofEi9DpyAjj+r18F3q9fhpXSau4bj9mLP8FT8HSNxjjgcSEMHJD2bBEM36UgT2rdLOh8WpD+lkTlv+n5Yy0DooCR0UKLlIHhIvdcmJOZh9Voftx81lSeSKbYlyvo2D/FM/NbxBP90GDJqaei+X5A9RyNzgUboNUnHn1QnNX719NIBKGvMEpDFXcsPqXJ4OfeNjPJ2Lmcvdh1PxL+fs9gcH7MXV6Q4gLY/LggMQuILylJsd8lo5hNVzFXvRQDQHbSBTQ7qXi+eiH9wrIb7ukDwHYmeUunI6DPK4MSlGkgI/6dktDjITodW1pu17RSYx9Vxsd0S8yP1WsuU9pmJvekMuzxOY7gu/tVMlj2pCXtxRWJPS0QEWt6SGKMgg2D1qAGzXKgxWH7UZPRk6QNq2ykJHFOvY09JzI/U6/Jz1cLW8YS9yFVcF/+ow8EpvE8iDTA/VO+1nOo6tLxtv5cr9yfGsL1kKtLhlb6Xs9jtoAE5xWF1qvORlecZB5U1P1StXLNALx4mwTwisXqYFLO3Py4qRibFVl0NEbOXzMyOhHfdjavin3YgHcA8rP4a8cl9eHFQTV5RGlCNUTjtpwLDHmpLiDxXfXpm9UP6k1UG5wrsz2Q4lHPYR9WIq+Kfm3AmXi8MeC0HJenFJTGxpyStL0ni1+rk5pf2b3lD0r8mT9tOiZZVZcaQSi1UQgZg4Had7s1qQuWUFxyGxLXimviBfJ43ss7i3+IsNPK8xOqHic8U5Evo/Zkg/LJk8Ps6suzpnTEKnVsEp3+78AHk4egWg/h1OnKaFHv60xqBAYi8KOn6dfU7Yzr2ph2EQw5wTfyBTKEJOiB3pvobOigJ75eMfFNHhAsbBfTeIwi/Cic3qFlsOYFB9QGccX2ezq2C8WUaH//WYOKSyV2KMQIiDOmL1KTMKQeymVqmCY5xTfybdcz2cgs08h3qdddvBPl2GPjJ5Jbb8UdB1x8kubMrSBMQ2yU5Y3WeljclJ+/QObmh1EUF35FEn5VkLtJOTcycYEl40+GdXAuuia9nEJIBGFuhqhAYgN6Ngsy5Gsd+qWP1l/YzP5AE36ne7vQk9Pxc0P0rldc59muD5OVKdORFSfs2QfTp6ueoxPsO80214Jr4jy1b4F0jY8s1sucqQaHXJfO/kaf1XzDwA53Elc5baPQZSe9G1ZcPrtVJXFU6h/lxfeKPzmXxTZzhmvhBUV+LR4cTd+un+nA9AR2PCPpvFoRek8iQ/YCZCe+XdG5RrX54jU7m/MK5q4Sd1RjKO4+GZsI18QlR321MYVZ5/J6SoCKBQZUqrofYkxLzA4kMwPAN6ryizkVlCTmHxc92fYyIwYl7dRKfc96vVyKyV/3NnqupO6fOU3uxHMA18dM8kXOMDMDQzTrH7tdJXq5NmjjVg54oGNMge5Y26cG5E2xTCFdwTXxMd+1UZBdqDK7VOfKoweBtOuNf1Egv1rB6nLVa6zTtVDo4e35ZIs4hURevrYhrZ+wyXDvVKWQQkp/VGF6jc+JenaMPGxzeZXD4SfXPPkstR7ZA4gqN6B7V6ke/opPvsu9VG15cm2tn7DcMe1H9SIjukfTfLDjrmjzz1gq6HhRE96iJVLEVV4pSZAAG1unIVmjboQbGfIeaG9SDq9dWoL6aTMPZLn0ZQE9A348F3Q+oJRlaRj2diu2WdD8g6L9F0PmQklmeuTyFBoO360xcqhHbKQmctO/gnAUBd66tHNfELzJnPwTpKZh3W57Qa9XDiNYXJcYwjKzSGf+SRm6+elw4frXG0S0GqSWaWlOzzZ0wcFFw9tdmx7W1k+/lLFYcn0XzktC3QRA6UFt1rF4YWK+TXTS1nw8MQN+6vMq/a3B4V/1dxXmmyfZ5vfbiWeNai19oBpg3i76wfbusWToFuf23CrrvF6WHInFof0xy+ncK0l3gktA0SX4XcE08wNJwfYG3eUSlCRwjIfqspHWv+sA6HhZ0/EVMXsox9YZwxNJQHTmLGnBV/JXh4lMMZ3RsE+prfnUSel2JTy2datnp6oJyegzDsy+vzaJaU1kSanEcARiD0PpS7V3MdAQPqb8TF2tYfbaNs7jCZa31NaRamEW1pueaaKu9qCqt+2RNS/CKTDeYmh+WUgOJq2yXNIsrXOHwWpwwi2pNz8pohE4HU+yZQsdT6Co+z55j36CW5+mF5Y7jyybneOrNbi6PtDq+e51Qu6EaMTWN1Q6+1NXy1szi8+0qdEwv1gjvUysSMheo/E1qicboSh0KAZWIMjmVoKlB2CmrHFxDPbgWx9tZeWJgxuUeRhzmX1f5AUp2kUZyqUZ2IafEWt0a1un2PScTeUHS84vSaB2/Tmf0q1rNEc4NbTG+117H0jMHeCb+lUyWVSerrDQtrADov8VhOKPD8HdVxrISehLO/Fp+UkvPnQUDPzLInVG+51QuDJps63N/wmTHM/EAW8YSPDBaea154BhEn6/vvx/7slZ16Xb071PzNFYPJD5f+QMDeKSvl8UepAjseCoeYP3QiKerbt3kzq4Olke8i2TKcX1wtbOxu5PLPJqEuMmN7bGGSacR4gE293T5/tsB1bi+Lcb1bd4OpnYaIj6saTzY2+1Z3mM23Nge40aPI5jp8LyPt3PXcJwnPP5+Ua00sk+303DxANsSSe4bGbUXN4wLgybrOzsaEr1UwhfxAG/ncmyKj3m2/rwSjZgc1YJv4ovsSqbYOp7gvTpWGztheaSVVW1RT/MvTvBdfJHdqQl2JFLsz7h3B/QYBstaw6yIepvwqoc5I77IoZzFC4Vf4TuQzWA5rN15pskloSBLQyHPHmK4wZwTX45EfRvjfcviqGUxlBckpCAr1bK6aNnvTi4IBFgUNIk0+Ad/6mVOi/9/piETqCZTaYr3iaZ4n2iK94mmeJ9oiveJpnifaIr3if8BnskIX7iBnPgAAAAASUVORK5CYII=;" vertex="1" parent="1">
          <mxGeometry width="94" height="82" as="geometry" />
        </mxCell>
      </root>
    </mxGraphModel>
  </diagram>
</mxfile>
